<?xml version="1.0" encoding="UTF-8" standalone="no"?>
<svg
   version="1.1"
   width="691.20001pt"
   height="273.60001pt"
   id="svg124"
   viewBox="0 0 691.20001 273.60001"
   sodipodi:docname="1 indigo.cdr"
   xmlns:inkscape="http://www.inkscape.org/namespaces/inkscape"
   xmlns:sodipodi="http://sodipodi.sourceforge.net/DTD/sodipodi-0.dtd"
   xmlns:xlink="http://www.w3.org/1999/xlink"
   xmlns="http://www.w3.org/2000/svg"
   xmlns:svg="http://www.w3.org/2000/svg">
  <defs
     id="defs128" />
  <sodipodi:namedview
     id="namedview126"
     pagecolor="#ffffff"
     bordercolor="#000000"
     borderopacity="0.25"
     inkscape:showpageshadow="2"
     inkscape:pageopacity="0.0"
     inkscape:pagecheckerboard="0"
     inkscape:deskcolor="#d1d1d1"
     inkscape:document-units="pt" />
  <g
     id="Layer1000">
    <path
       d="m 90.112,224.2242 c 9.8114,0 19.6227,0 29.435,0 0.9275,-32.8612 11.9265,-65.2353 43.6568,-85.4794 48.7453,-28.8659 99.1439,-25.9971 146.8113,34.8702 C 283.141,109.1054 205.329,87.6151 145.9475,124.0845 111.3222,145.3505 91.7796,178.5603 90.112,224.2242 Z"
       style="fill:#969696;fill-rule:evenodd"
       id="path2" />
    <defs
       id="defs10">
      <linearGradient
         id="grad1">
        <stop
           offset="0%"
           stop-color="#003d8f"
           stop-opacity="1.0000"
           id="stop4" />
        <stop
           offset="100%"
           stop-color="#44569f"
           stop-opacity="1.0000"
           id="stop6" />
      </linearGradient>
      <linearGradient
         xlink:href="#grad1"
         id="grad2"
         x1="0"
         y1="0"
         x2="0"
         y2="1"
         gradientTransform="rotate(180,0.5,0.5)"
         gradientUnits="objectBoundingBox" />
    </defs>
    <path
       d="m 340.4307,142.6015 v 65.7675 h 12.3606 v -65.7675 z"
       style="fill:url(#grad2)"
       id="path12" />
    <defs
       id="defs20">
      <linearGradient
         id="grad3">
        <stop
           offset="0%"
           stop-color="#003d8f"
           stop-opacity="1.0000"
           id="stop14" />
        <stop
           offset="100%"
           stop-color="#44569f"
           stop-opacity="1.0000"
           id="stop16" />
      </linearGradient>
      <linearGradient
         xlink:href="#grad3"
         id="grad4"
         x1="0"
         y1="0"
         x2="0"
         y2="1"
         gradientTransform="rotate(180,0.5,0.5)"
         gradientUnits="objectBoundingBox" />
    </defs>
    <path
       d="m 512.2378,159.8416 v 48.5274 h 12.3606 v -48.5274 z"
       style="fill:url(#grad4)"
       id="path22" />
    <defs
       id="defs30">
      <linearGradient
         id="grad5">
        <stop
           offset="0%"
           stop-color="#003d8f"
           stop-opacity="1.0000"
           id="stop24" />
        <stop
           offset="100%"
           stop-color="#44569f"
           stop-opacity="1.0000"
           id="stop26" />
      </linearGradient>
      <linearGradient
         xlink:href="#grad5"
         id="grad6"
         x1="0"
         y1="0"
         x2="0"
         y2="1"
         gradientTransform="rotate(180,0.5,0.5)"
         gradientUnits="objectBoundingBox" />
    </defs>
    <path
       d="m 482.5048,142.6015 h 12.3605 v 63.3939 l -12.3605,1.4236 c -29.6413,4.2835 -42.254,-2.8274 -43.9882,-21.4903 -2.995,-32.9081 39.0618,-26.3491 43.9882,-23.3704 z m -0.0451,28.1815 c 0,9.2576 0,18.5161 0,27.7746 -17.5328,4.1565 -29.9654,1.8757 -31.2143,-14.5297 -0.335,-11.0225 5.7206,-15.4681 16.1488,-15.4186 7.363,-0.371 11.6456,0.6997 15.0655,2.1737 z"
       style="fill:url(#grad6)"
       id="path32" />
    <defs
       id="defs40">
      <linearGradient
         id="grad7">
        <stop
           offset="0%"
           stop-color="#003d8f"
           stop-opacity="1.0000"
           id="stop34" />
        <stop
           offset="100%"
           stop-color="#44569f"
           stop-opacity="1.0000"
           id="stop36" />
      </linearGradient>
      <linearGradient
         xlink:href="#grad7"
         id="grad8"
         x1="0"
         y1="0"
         x2="0"
         y2="1"
         gradientTransform="rotate(180,0.5,0.5)"
         gradientUnits="objectBoundingBox" />
    </defs>
    <path
       d="m 544.6786,214.8442 c 0.0477,2.7031 0.0954,5.4063 0.1422,8.1086 13.6861,2.5087 49.0164,6.6544 50.06,-13.2097 V 161.909 c -15.8597,-1.872 -54.0031,-9.7852 -56.3487,20.0667 -2.922,31.5133 39.1761,26.7778 44.1025,23.7991 0.2629,17.666 -26.486,10.1391 -37.956,9.0694 z m 37.7966,-17.7228 c 0,-9.2576 0,-18.5161 0,-27.7746 -17.5328,-2.8688 -30.7353,-2.3907 -31.2143,14.5298 -0.335,11.0225 5.7206,15.9822 16.1488,15.9327 7.363,0.3709 11.6456,-1.2139 15.0655,-2.6879 z"
       style="fill:url(#grad8)"
       id="path42" />
    <defs
       id="defs50">
      <linearGradient
         id="grad9">
        <stop
           offset="0%"
           stop-color="#003d8f"
           stop-opacity="1.0000"
           id="stop44" />
        <stop
           offset="100%"
           stop-color="#44569f"
           stop-opacity="1.0000"
           id="stop46" />
      </linearGradient>
      <linearGradient
         xlink:href="#grad9"
         id="grad10"
         x1="0"
         y1="0"
         x2="0"
         y2="1"
         gradientTransform="rotate(180,0.5,0.5)"
         gradientUnits="objectBoundingBox" />
    </defs>
    <path
       d="m 381.9256,173.3881 0.018,34.9809 H 369.583 v -48.7435 h 9.0442 l 1.9063,5.8728 c 11.4133,-7.2055 41.8091,-11.4628 43.4569,9.6357 v 33.235 h -12.3606 c 0,-10.258 0,-20.516 0,-30.774 -1.1697,-16.4604 -23.8774,-8.0402 -29.7042,-4.2069 z"
       style="fill:url(#grad10)"
       id="path52" />
    <defs
       id="defs60">
      <linearGradient
         id="grad11">
        <stop
           offset="0%"
           stop-color="#003d8f"
           stop-opacity="1.0000"
           id="stop54" />
        <stop
           offset="100%"
           stop-color="#44569f"
           stop-opacity="1.0000"
           id="stop56" />
      </linearGradient>
      <linearGradient
         xlink:href="#grad11"
         id="grad12"
         x1="0"
         y1="0"
         x2="0"
         y2="1"
         gradientTransform="rotate(180,0.5,0.5)"
         gradientUnits="objectBoundingBox" />
    </defs>
    <path
       d="m 639.3499,208.2384 c 22.6942,0.1108 30.1986,-10.8694 30.1986,-24.2736 0,-13.4042 -7.8367,-24.2745 -30.1986,-24.2745 -22.362,0 -29.8664,10.8694 -29.8664,24.2745 0,13.4042 7.1721,24.1629 29.8664,24.2736 z m 0.0711,-8.2365 c 13.0692,0.0739 17.3905,-7.1811 17.3905,-16.0371 0,-8.8569 -4.5131,-16.0389 -17.3905,-16.0389 -12.8783,0 -17.2005,7.182 -17.2005,16.0389 0,8.856 4.1304,15.9642 17.2005,16.0371 z"
       style="fill:url(#grad12)"
       id="path62" />
    <text
       x="233.5538"
       y="262.5083"
       id="text66"><tspan
         font-family="Arial"
         font-size="29px"
         fill="#033d8f"
         id="tspan64">INFRAPROJECTS PVT. LTD.</tspan></text>
    <path
       d="M 22.2896,232.5309 H 669.3269"
       style="fill:none;stroke:#033d8f;stroke-width:3.5739;stroke-linecap:butt;stroke-linejoin:miter;stroke-dasharray:none"
       id="path68" />
    <path
       d="m 21.6512,222.6367 c 17.232,0 34.464,0 51.697,0 2.8823,-37.7651 12.9575,-69.9375 35.8544,-92.1374 C 156.382,79.4254 224.859,75.5112 272.6318,101.3155 210.0744,53.4527 132.8314,56.5989 72.5144,107.1523 38.5771,135.5959 24.5335,176.3253 21.6512,222.6367 Z"
       style="fill:#ea5f1c;fill-rule:evenodd"
       id="path70" />
    <defs
       id="defs79">
      <linearGradient
         id="grad13">
        <stop
           offset="0.0000%"
           stop-color="#ea5e1d"
           stop-opacity="1.0000"
           id="stop72" />
        <stop
           offset="48.0000%"
           stop-color="#f8c585"
           stop-opacity="1.0000"
           id="stop74" />
        <stop
           offset="100.0000%"
           stop-color="#ea5e1d"
           stop-opacity="1.0000"
           id="stop76" />
      </linearGradient>
    </defs>
    <path
       d="M 25.886,215.4403 C 30.0731,171.7816 43.0595,132.5217 80.3762,105.4252 125.6872,67.3341 185.5387,62.7724 227.6378,78.525 168.7785,63.4937 118.3116,80.3358 81.7557,111.633 45.2927,142.0387 31.0682,177.676 25.886,215.4403 Z"
       style="fill:url(#grad13)"
       id="path81" />
    <path
       d="m 137.1734,224.2242 c 7.2631,0 14.5271,0 21.7911,0 -0.0541,-25.7584 9.4242,-44.8427 26.803,-58.4 37.1987,-29.9456 86.7913,-21.7739 117.2358,19.1761 -27.8205,-45.3622 -78.3028,-62.5763 -128.5672,-31.8149 -22.4268,17.097 -36.9196,39.4139 -37.2627,71.0388 z"
       style="fill:#85978a;fill-rule:evenodd"
       id="path83" />
    <path
       d="m 134.5585,221.1735 c 7.2631,0 14.5271,0 21.791,0 -0.054,-25.7585 9.4242,-44.8427 26.803,-58.4 37.1988,-29.9456 86.7914,-21.774 117.2359,19.1761 -27.8205,-45.3623 -78.3028,-62.5763 -128.5672,-31.8149 -22.4268,17.0969 -36.9196,39.4138 -37.2627,71.0388 z"
       style="fill:#0a7c41;fill-rule:evenodd"
       id="path85" />
    <path
       d="m 86.3427,221.0591 c 9.8113,0 19.6227,0 29.435,0 0.9275,-32.8612 11.0558,-63.2048 42.787,-83.4498 52.5155,-33.506 104.3629,-26.5769 152.0303,34.2903 C 283.7209,107.39 201.5597,84.4491 142.1782,120.9194 107.552,142.1854 88.0103,175.3952 86.3427,221.0591 Z"
       style="fill:#ffffff;fill-rule:evenodd;stroke:#d9dadb;stroke-width:0.6861;stroke-linecap:butt;stroke-linejoin:miter;stroke-dasharray:none"
       id="path87" />
    <defs
       id="defs97">
      <linearGradient
         id="grad14">
        <stop
           offset="0.0000%"
           stop-color="#b1b3b4"
           stop-opacity="1.0000"
           id="stop89" />
        <stop
           offset="12.0000%"
           stop-color="#cdcfd0"
           stop-opacity="1.0000"
           id="stop91" />
        <stop
           offset="100.0000%"
           stop-color="#ffffff"
           stop-opacity="1.0000"
           id="stop93" />
      </linearGradient>
      <linearGradient
         xlink:href="#grad14"
         id="grad15"
         x1="0"
         y1="0"
         x2="0"
         y2="1"
         gradientTransform="rotate(110,0.5,0.5)"
         gradientUnits="objectBoundingBox" />
    </defs>
    <path
       d="m 86.3427,221.0591 c 9.8113,0 19.6227,0 29.435,0 0.9275,-32.8612 11.0558,-63.2048 42.787,-83.4498 52.5155,-33.506 104.3629,-26.5769 152.0303,34.2903 -30.2121,-52.6749 -95.6843,-75.9175 -155.0649,-39.449 -20.7942,12.7712 -43.926,41.1599 -44.7094,83.0149 l -24.1413,0.3512 c -0.1575,1.7099 -0.2719,3.4586 -0.3367,5.2424 z"
       style="fill:url(#grad15)"
       id="path99" />
    <defs
       id="defs109">
      <linearGradient
         id="grad16">
        <stop
           offset="0.0000%"
           stop-color="#1b1918"
           stop-opacity="1.0000"
           id="stop101" />
        <stop
           offset="50.0000%"
           stop-color="#b5b7b8"
           stop-opacity="1.0000"
           id="stop103" />
        <stop
           offset="100.0000%"
           stop-color="#ffffff"
           stop-opacity="1.0000"
           id="stop105" />
      </linearGradient>
      <linearGradient
         xlink:href="#grad16"
         id="grad17"
         x1="0"
         y1="0"
         x2="0"
         y2="1"
         gradientTransform="rotate(120,0.5,0.5)"
         gradientUnits="objectBoundingBox" />
    </defs>
    <path
       d="m 174.0714,111.4736 c 60.626,-13.3322 106.2854,11.7527 136.6677,59.6615 -8.6642,-19.2373 -23.9512,-39.9244 -52.4192,-53.9986 -31.6249,-11.9634 -59.9235,-13.0638 -84.2485,-5.6629 z"
       style="fill:url(#grad17)"
       id="path111" />
    <path
       d="m 349.3615,28.6649 6.5994,3.1012 -0.6645,-7.2361 5.0948,-5.6855 -7.4576,-0.9599 -3.5721,-6.793 -3.5721,6.793 -7.4576,0.9599 5.0948,5.6855 -0.6646,7.2361 z"
       style="fill:none;stroke:#033d8f;stroke-width:3.202;stroke-linecap:round;stroke-linejoin:round;stroke-dasharray:none"
       id="path113" />
    <path
       d="m 313.7862,57.439 6.5995,3.1012 -0.6645,-7.2361 5.0947,-5.6855 -7.4575,-0.9599 -3.5722,-6.793 -3.5721,6.793 -7.4575,0.9599 5.0947,5.6855 -0.6645,7.2361 z"
       style="fill:none;stroke:#033d8f;stroke-width:3.202;stroke-linecap:round;stroke-linejoin:round;stroke-dasharray:none"
       id="path115" />
    <path
       d="m 353.0236,84.1204 6.5995,3.1012 -0.6646,-7.2361 5.0948,-5.6855 -7.4576,-0.9598 -3.5721,-6.7931 -3.5721,6.7931 -7.4576,0.9598 5.0948,5.6855 -0.6645,7.2361 z"
       style="fill:none;stroke:#033d8f;stroke-width:3.202;stroke-linecap:round;stroke-linejoin:round;stroke-dasharray:none"
       id="path117" />
    <path
       d="m 312.7399,108.7092 6.5995,3.1011 -0.6646,-7.236 5.0948,-5.6855 -7.4576,-0.9599 -3.5721,-6.793 -3.5721,6.793 -7.4576,0.9599 5.0948,5.6855 -0.6645,7.236 z"
       style="fill:none;stroke:#033d8f;stroke-width:3.202;stroke-linecap:round;stroke-linejoin:round;stroke-dasharray:none"
       id="path119" />
    <path
       d="m 512.2378,142.6015 v 8.5237 h 12.3606 v -8.5237 z"
       style="fill:#44569e;fill-rule:evenodd"
       id="path121" />
  </g>
</svg>
